<svg xmlns="http://www.w3.org/2000/svg" width="512" height="512" viewBox="0 0 512 512"><path d="M212.55 255.995c0-24.55 19.9-44.443 44.45-44.443 24.55 0 44.453 19.894 44.453 44.443 0 24.547-19.904 44.454-44.453 44.454-24.55 0-44.45-19.908-44.45-44.455zm115.563 0c0 39.283-31.838 71.12-71.113 71.12-39.274 0-71.113-31.837-71.113-71.12 0-6.146.87-12.092 2.335-17.783H168.1v97.793c0 4.904 3.98 8.88 8.897 8.88h160.008c4.917 0 8.9-3.976 8.9-8.88v-97.793H325.78c1.468 5.69 2.333 11.637 2.333 17.783zm8.892-88.895h-26.663c-4.91 0-8.89 3.98-8.89 8.89v26.672c0 4.906 3.98 8.89 8.89 8.89h26.663c4.917 0 8.9-3.983 8.9-8.89V175.99c0-4.91-3.983-8.89-8.9-8.89zM462 256c0 113.77-92.23 206-206 206S50 369.77 50 256 142.23 50 256 50s206 92.23 206 206zm-89.434-88.9c0-14.73-11.936-26.665-26.662-26.665H168.1c-14.725 0-26.665 11.936-26.665 26.665v177.786c0 14.736 11.94 26.68 26.664 26.68h177.805c14.727 0 26.662-11.943 26.662-26.68V167.1z"/></svg>