<svg xmlns="http://www.w3.org/2000/svg" width="512" height="512" viewBox="0 0 512 512"><path d="M461.203 256c0 113.763-92.236 206-206 206-99.26 0-182.11-70.242-201.607-163.72l81.776 34.4c4.896 24.727 26.79 43.704 53.48 43.485 29.57-.284 53.31-24.273 53.494-53.713.017-.033.084-.033.117-.066l61.826-46.068c39.563.402 71.08-31.467 71.08-70.226 0-38.8-31.483-70.26-70.26-70.26-38.356 0-69.487 30.747-70.208 68.92l-45.314 63.402c-11.467-.243-21.776 2.9-30.745 8.768l-108.046-45.44C62.934 129.287 149.757 50 255.204 50c113.763 0 206 92.23 206 206zM176.63 350.014l-26.505-11.13c6.52 14.718 21.224 25.08 38.608 24.995 23.102-.202 41.575-19.063 41.374-42.147-.2-22.816-18.943-41.357-41.743-41.357-4.93 0-9.79.855-14.77 2.75l26.472 11.114c15.423 6.487 22.648 24.225 16.16 39.614-6.47 15.39-24.19 22.63-39.596 16.16zm128.48-96.16c-26.32 0-47.745-21.433-47.745-47.76 0-26.338 21.426-47.754 47.746-47.754 26.337 0 47.745 21.417 47.745 47.753 0 26.328-21.408 47.76-47.744 47.76zm0-11.7c19.9 0 36.044-16.17 36.044-36.06 0-19.884-16.145-36.078-36.043-36.078-19.9 0-36.077 16.194-36.077 36.077 0 19.89 16.178 36.06 36.078 36.06z"/></svg>